<mxfile host="65bd71144e">
    <diagram id="4Bnzrhr5k3Xbg9pZ94Lz" name="Page-1">
        <mxGraphModel dx="2303" dy="1104" grid="1" gridSize="10" guides="1" tooltips="1" connect="1" arrows="1" fold="1" page="1" pageScale="1" pageWidth="850" pageHeight="1100" math="0" shadow="0">
            <root>
                <mxCell id="0"/>
                <mxCell id="1" parent="0"/>
                <mxCell id="2" value="" style="shape=table;startSize=0;container=1;collapsible=0;childLayout=tableLayout;fillColor=none;strokeColor=default;rounded=0;strokeWidth=2;" parent="1" vertex="1">
                    <mxGeometry x="40" y="40" width="760" height="960" as="geometry"/>
                </mxCell>
                <mxCell id="3" value="" style="shape=tableRow;horizontal=0;startSize=0;swimlaneHead=0;swimlaneBody=0;top=0;left=0;bottom=0;right=0;collapsible=0;dropTarget=0;fillColor=none;points=[[0,0.5],[1,0.5]];portConstraint=eastwest;" parent="2" vertex="1">
                    <mxGeometry width="760" height="960" as="geometry"/>
                </mxCell>
                <mxCell id="4" value="" style="shape=partialRectangle;html=1;whiteSpace=wrap;connectable=0;overflow=hidden;fillColor=none;top=0;left=0;bottom=0;right=0;pointerEvents=1;" parent="3" vertex="1">
                    <mxGeometry width="760" height="960" as="geometry">
                        <mxRectangle width="760" height="960" as="alternateBounds"/>
                    </mxGeometry>
                </mxCell>
                <mxCell id="5" value="" style="shape=table;startSize=0;container=1;collapsible=0;childLayout=tableLayout;rounded=0;strokeColor=default;strokeWidth=1;fillColor=none;" parent="1" vertex="1">
                    <mxGeometry x="50" y="50" width="740" height="270" as="geometry"/>
                </mxCell>
                <mxCell id="6" value="" style="shape=tableRow;horizontal=0;startSize=0;swimlaneHead=0;swimlaneBody=0;top=0;left=0;bottom=0;right=0;collapsible=0;dropTarget=0;fillColor=none;points=[[0,0.5],[1,0.5]];portConstraint=eastwest;rounded=0;strokeColor=default;strokeWidth=2;" parent="5" vertex="1">
                    <mxGeometry width="740" height="270" as="geometry"/>
                </mxCell>
                <mxCell id="7" value="" style="shape=partialRectangle;html=1;whiteSpace=wrap;connectable=0;overflow=hidden;fillColor=none;top=0;left=0;bottom=0;right=0;pointerEvents=1;rounded=0;strokeColor=default;strokeWidth=2;" parent="6" vertex="1">
                    <mxGeometry width="740" height="270" as="geometry">
                        <mxRectangle width="740" height="270" as="alternateBounds"/>
                    </mxGeometry>
                </mxCell>
                <mxCell id="14" value="" style="group" vertex="1" connectable="0" parent="1">
                    <mxGeometry x="315" y="70" width="220" height="190" as="geometry"/>
                </mxCell>
                <mxCell id="10" value="" style="group" vertex="1" connectable="0" parent="14">
                    <mxGeometry width="220" height="80" as="geometry"/>
                </mxCell>
                <mxCell id="8" value="" style="rounded=0;whiteSpace=wrap;html=1;fillColor=none;" vertex="1" parent="10">
                    <mxGeometry width="220" height="80" as="geometry"/>
                </mxCell>
                <mxCell id="9" value="TITULO" style="text;html=1;strokeColor=none;fillColor=none;align=center;verticalAlign=middle;whiteSpace=wrap;rounded=0;" vertex="1" parent="10">
                    <mxGeometry x="80" y="25" width="60" height="30" as="geometry"/>
                </mxCell>
                <mxCell id="11" value="" style="group" vertex="1" connectable="0" parent="14">
                    <mxGeometry y="110" width="220" height="80" as="geometry"/>
                </mxCell>
                <mxCell id="12" value="" style="rounded=0;whiteSpace=wrap;html=1;fillColor=none;" vertex="1" parent="11">
                    <mxGeometry width="220" height="80" as="geometry"/>
                </mxCell>
                <mxCell id="13" value="DESCRIPCION JUEGO" style="text;html=1;strokeColor=none;fillColor=none;align=center;verticalAlign=middle;whiteSpace=wrap;rounded=0;" vertex="1" parent="11">
                    <mxGeometry x="80" y="25" width="60" height="30" as="geometry"/>
                </mxCell>
                <mxCell id="15" value="" style="endArrow=classic;html=1;" edge="1" parent="1" target="16">
                    <mxGeometry width="50" height="50" relative="1" as="geometry">
                        <mxPoint x="20" y="180" as="sourcePoint"/>
                        <mxPoint x="-70" y="180" as="targetPoint"/>
                    </mxGeometry>
                </mxCell>
                <mxCell id="16" value="VIDEO DE FONDO" style="text;html=1;strokeColor=none;fillColor=none;align=center;verticalAlign=middle;whiteSpace=wrap;rounded=0;" vertex="1" parent="1">
                    <mxGeometry x="-130" y="165" width="60" height="30" as="geometry"/>
                </mxCell>
                <mxCell id="17" value="" style="shape=table;startSize=0;container=1;collapsible=0;childLayout=tableLayout;rounded=0;strokeColor=default;strokeWidth=1;fillColor=none;" vertex="1" parent="1">
                    <mxGeometry x="50" y="330" width="740" height="60" as="geometry"/>
                </mxCell>
                <mxCell id="18" value="" style="shape=tableRow;horizontal=0;startSize=0;swimlaneHead=0;swimlaneBody=0;top=0;left=0;bottom=0;right=0;collapsible=0;dropTarget=0;fillColor=none;points=[[0,0.5],[1,0.5]];portConstraint=eastwest;rounded=0;strokeColor=default;strokeWidth=2;" vertex="1" parent="17">
                    <mxGeometry width="740" height="60" as="geometry"/>
                </mxCell>
                <mxCell id="19" value="" style="shape=partialRectangle;html=1;whiteSpace=wrap;connectable=0;overflow=hidden;fillColor=none;top=0;left=0;bottom=0;right=0;pointerEvents=1;rounded=0;strokeColor=default;strokeWidth=2;" vertex="1" parent="18">
                    <mxGeometry width="740" height="60" as="geometry">
                        <mxRectangle width="740" height="60" as="alternateBounds"/>
                    </mxGeometry>
                </mxCell>
                <mxCell id="20" value="PERSONAJES" style="text;html=1;strokeColor=none;fillColor=none;align=center;verticalAlign=middle;whiteSpace=wrap;rounded=0;" vertex="1" parent="1">
                    <mxGeometry x="328" y="345" width="195" height="30" as="geometry"/>
                </mxCell>
                <mxCell id="21" value="" style="shape=table;startSize=0;container=1;collapsible=0;childLayout=tableLayout;rounded=0;strokeColor=default;strokeWidth=1;fillColor=none;" vertex="1" parent="1">
                    <mxGeometry x="50" y="400" width="740" height="60" as="geometry"/>
                </mxCell>
                <mxCell id="22" value="" style="shape=tableRow;horizontal=0;startSize=0;swimlaneHead=0;swimlaneBody=0;top=0;left=0;bottom=0;right=0;collapsible=0;dropTarget=0;fillColor=none;points=[[0,0.5],[1,0.5]];portConstraint=eastwest;rounded=0;strokeColor=default;strokeWidth=2;" vertex="1" parent="21">
                    <mxGeometry width="740" height="60" as="geometry"/>
                </mxCell>
                <mxCell id="23" value="" style="shape=partialRectangle;html=1;whiteSpace=wrap;connectable=0;overflow=hidden;fillColor=none;top=0;left=0;bottom=0;right=0;pointerEvents=1;rounded=0;strokeColor=default;strokeWidth=2;" vertex="1" parent="22">
                    <mxGeometry width="740" height="60" as="geometry">
                        <mxRectangle width="740" height="60" as="alternateBounds"/>
                    </mxGeometry>
                </mxCell>
                <mxCell id="24" value="TIPO 1" style="text;html=1;strokeColor=none;fillColor=none;align=center;verticalAlign=middle;whiteSpace=wrap;rounded=0;" vertex="1" parent="1">
                    <mxGeometry x="163" y="415" width="122" height="30" as="geometry"/>
                </mxCell>
                <mxCell id="25" value="TIPO 2" style="text;html=1;strokeColor=none;fillColor=none;align=center;verticalAlign=middle;whiteSpace=wrap;rounded=0;" vertex="1" parent="1">
                    <mxGeometry x="301" y="415" width="122" height="30" as="geometry"/>
                </mxCell>
                <mxCell id="26" value="TIPO 4" style="text;html=1;strokeColor=none;fillColor=none;align=center;verticalAlign=middle;whiteSpace=wrap;rounded=0;" vertex="1" parent="1">
                    <mxGeometry x="598" y="416" width="122" height="30" as="geometry"/>
                </mxCell>
                <mxCell id="27" value="TIPO 3" style="text;html=1;strokeColor=none;fillColor=none;align=center;verticalAlign=middle;whiteSpace=wrap;rounded=0;" vertex="1" parent="1">
                    <mxGeometry x="460" y="416" width="122" height="30" as="geometry"/>
                </mxCell>
                <mxCell id="66" value="" style="shape=table;startSize=0;container=1;collapsible=0;childLayout=tableLayout;fillColor=none;strokeColor=default;rounded=0;strokeWidth=2;" vertex="1" parent="1">
                    <mxGeometry x="990" y="40" width="760" height="960" as="geometry"/>
                </mxCell>
                <mxCell id="67" value="" style="shape=tableRow;horizontal=0;startSize=0;swimlaneHead=0;swimlaneBody=0;top=0;left=0;bottom=0;right=0;collapsible=0;dropTarget=0;fillColor=none;points=[[0,0.5],[1,0.5]];portConstraint=eastwest;" vertex="1" parent="66">
                    <mxGeometry width="760" height="960" as="geometry"/>
                </mxCell>
                <mxCell id="68" value="" style="shape=partialRectangle;html=1;whiteSpace=wrap;connectable=0;overflow=hidden;fillColor=none;top=0;left=0;bottom=0;right=0;pointerEvents=1;" vertex="1" parent="67">
                    <mxGeometry width="760" height="960" as="geometry">
                        <mxRectangle width="760" height="960" as="alternateBounds"/>
                    </mxGeometry>
                </mxCell>
                <mxCell id="69" value="" style="shape=table;startSize=0;container=1;collapsible=0;childLayout=tableLayout;rounded=0;strokeColor=default;strokeWidth=1;fillColor=none;" vertex="1" parent="1">
                    <mxGeometry x="1000" y="50" width="740" height="270" as="geometry"/>
                </mxCell>
                <mxCell id="70" value="" style="shape=tableRow;horizontal=0;startSize=0;swimlaneHead=0;swimlaneBody=0;top=0;left=0;bottom=0;right=0;collapsible=0;dropTarget=0;fillColor=none;points=[[0,0.5],[1,0.5]];portConstraint=eastwest;rounded=0;strokeColor=default;strokeWidth=2;" vertex="1" parent="69">
                    <mxGeometry width="740" height="270" as="geometry"/>
                </mxCell>
                <mxCell id="71" value="" style="shape=partialRectangle;html=1;whiteSpace=wrap;connectable=0;overflow=hidden;fillColor=none;top=0;left=0;bottom=0;right=0;pointerEvents=1;rounded=0;strokeColor=default;strokeWidth=2;" vertex="1" parent="70">
                    <mxGeometry width="740" height="270" as="geometry">
                        <mxRectangle width="740" height="270" as="alternateBounds"/>
                    </mxGeometry>
                </mxCell>
                <mxCell id="72" value="" style="group" vertex="1" connectable="0" parent="1">
                    <mxGeometry x="1265" y="70" width="220" height="190" as="geometry"/>
                </mxCell>
                <mxCell id="73" value="" style="group" vertex="1" connectable="0" parent="72">
                    <mxGeometry width="220" height="80" as="geometry"/>
                </mxCell>
                <mxCell id="74" value="" style="rounded=0;whiteSpace=wrap;html=1;fillColor=none;" vertex="1" parent="73">
                    <mxGeometry width="220" height="80" as="geometry"/>
                </mxCell>
                <mxCell id="75" value="TITULO" style="text;html=1;strokeColor=none;fillColor=none;align=center;verticalAlign=middle;whiteSpace=wrap;rounded=0;" vertex="1" parent="73">
                    <mxGeometry x="80" y="25" width="60" height="30" as="geometry"/>
                </mxCell>
                <mxCell id="76" value="" style="group" vertex="1" connectable="0" parent="72">
                    <mxGeometry y="110" width="220" height="80" as="geometry"/>
                </mxCell>
                <mxCell id="77" value="" style="rounded=0;whiteSpace=wrap;html=1;fillColor=none;" vertex="1" parent="76">
                    <mxGeometry width="220" height="80" as="geometry"/>
                </mxCell>
                <mxCell id="78" value="DESCRIPCION JUEGO" style="text;html=1;strokeColor=none;fillColor=none;align=center;verticalAlign=middle;whiteSpace=wrap;rounded=0;" vertex="1" parent="76">
                    <mxGeometry x="80" y="25" width="60" height="30" as="geometry"/>
                </mxCell>
                <mxCell id="79" value="" style="shape=table;startSize=0;container=1;collapsible=0;childLayout=tableLayout;rounded=0;strokeColor=default;strokeWidth=1;fillColor=none;" vertex="1" parent="1">
                    <mxGeometry x="1000" y="330" width="740" height="60" as="geometry"/>
                </mxCell>
                <mxCell id="80" value="" style="shape=tableRow;horizontal=0;startSize=0;swimlaneHead=0;swimlaneBody=0;top=0;left=0;bottom=0;right=0;collapsible=0;dropTarget=0;fillColor=none;points=[[0,0.5],[1,0.5]];portConstraint=eastwest;rounded=0;strokeColor=default;strokeWidth=2;" vertex="1" parent="79">
                    <mxGeometry width="740" height="60" as="geometry"/>
                </mxCell>
                <mxCell id="81" value="" style="shape=partialRectangle;html=1;whiteSpace=wrap;connectable=0;overflow=hidden;fillColor=none;top=0;left=0;bottom=0;right=0;pointerEvents=1;rounded=0;strokeColor=default;strokeWidth=2;" vertex="1" parent="80">
                    <mxGeometry width="740" height="60" as="geometry">
                        <mxRectangle width="740" height="60" as="alternateBounds"/>
                    </mxGeometry>
                </mxCell>
                <mxCell id="82" value="PERSONAJES" style="text;html=1;strokeColor=none;fillColor=none;align=center;verticalAlign=middle;whiteSpace=wrap;rounded=0;" vertex="1" parent="1">
                    <mxGeometry x="1278" y="345" width="195" height="30" as="geometry"/>
                </mxCell>
                <mxCell id="83" value="" style="shape=table;startSize=0;container=1;collapsible=0;childLayout=tableLayout;rounded=0;strokeColor=default;strokeWidth=1;fillColor=none;" vertex="1" parent="1">
                    <mxGeometry x="1000" y="400" width="740" height="60" as="geometry"/>
                </mxCell>
                <mxCell id="84" value="" style="shape=tableRow;horizontal=0;startSize=0;swimlaneHead=0;swimlaneBody=0;top=0;left=0;bottom=0;right=0;collapsible=0;dropTarget=0;fillColor=none;points=[[0,0.5],[1,0.5]];portConstraint=eastwest;rounded=0;strokeColor=default;strokeWidth=2;" vertex="1" parent="83">
                    <mxGeometry width="740" height="60" as="geometry"/>
                </mxCell>
                <mxCell id="85" value="" style="shape=partialRectangle;html=1;whiteSpace=wrap;connectable=0;overflow=hidden;fillColor=none;top=0;left=0;bottom=0;right=0;pointerEvents=1;rounded=0;strokeColor=default;strokeWidth=2;" vertex="1" parent="84">
                    <mxGeometry width="740" height="60" as="geometry">
                        <mxRectangle width="740" height="60" as="alternateBounds"/>
                    </mxGeometry>
                </mxCell>
                <mxCell id="86" value="TIPO 1" style="text;html=1;strokeColor=none;fillColor=none;align=center;verticalAlign=middle;whiteSpace=wrap;rounded=0;" vertex="1" parent="1">
                    <mxGeometry x="1113" y="415" width="122" height="30" as="geometry"/>
                </mxCell>
                <mxCell id="87" value="TIPO 2" style="text;html=1;strokeColor=none;fillColor=none;align=center;verticalAlign=middle;whiteSpace=wrap;rounded=0;" vertex="1" parent="1">
                    <mxGeometry x="1251" y="415" width="122" height="30" as="geometry"/>
                </mxCell>
                <mxCell id="88" value="TIPO 4" style="text;html=1;strokeColor=none;fillColor=none;align=center;verticalAlign=middle;whiteSpace=wrap;rounded=0;" vertex="1" parent="1">
                    <mxGeometry x="1548" y="416" width="122" height="30" as="geometry"/>
                </mxCell>
                <mxCell id="89" value="TIPO 3" style="text;html=1;strokeColor=none;fillColor=none;align=center;verticalAlign=middle;whiteSpace=wrap;rounded=0;" vertex="1" parent="1">
                    <mxGeometry x="1410" y="416" width="122" height="30" as="geometry"/>
                </mxCell>
                <mxCell id="90" value="" style="shape=table;startSize=0;container=1;collapsible=0;childLayout=tableLayout;rounded=0;strokeColor=default;strokeWidth=1;fillColor=none;" vertex="1" parent="1">
                    <mxGeometry x="1000" y="470" width="740" height="340" as="geometry"/>
                </mxCell>
                <mxCell id="91" value="" style="shape=tableRow;horizontal=0;startSize=0;swimlaneHead=0;swimlaneBody=0;top=0;left=0;bottom=0;right=0;collapsible=0;dropTarget=0;fillColor=none;points=[[0,0.5],[1,0.5]];portConstraint=eastwest;rounded=0;strokeColor=default;strokeWidth=2;" vertex="1" parent="90">
                    <mxGeometry width="740" height="340" as="geometry"/>
                </mxCell>
                <mxCell id="92" value="" style="shape=partialRectangle;html=1;whiteSpace=wrap;connectable=0;overflow=hidden;fillColor=none;top=0;left=0;bottom=0;right=0;pointerEvents=1;rounded=0;strokeColor=default;strokeWidth=2;" vertex="1" parent="91">
                    <mxGeometry width="740" height="340" as="geometry">
                        <mxRectangle width="740" height="340" as="alternateBounds"/>
                    </mxGeometry>
                </mxCell>
                <mxCell id="96" value="" style="group" vertex="1" connectable="0" parent="1">
                    <mxGeometry x="1040" y="520" width="200" height="240" as="geometry"/>
                </mxCell>
                <mxCell id="97" value="" style="rounded=0;whiteSpace=wrap;html=1;fillColor=none;" vertex="1" parent="96">
                    <mxGeometry width="200" height="240" as="geometry"/>
                </mxCell>
                <mxCell id="98" value="IMAGEN&lt;br&gt;PERSONAJE" style="text;html=1;strokeColor=none;fillColor=none;align=center;verticalAlign=middle;whiteSpace=wrap;rounded=0;" vertex="1" parent="96">
                    <mxGeometry x="72.72727272727273" y="75" width="54.54545454545455" height="90" as="geometry"/>
                </mxCell>
                <mxCell id="99" value="" style="group" vertex="1" connectable="0" parent="1">
                    <mxGeometry x="1275" y="520" width="445" height="240" as="geometry"/>
                </mxCell>
                <mxCell id="100" value="" style="rounded=0;whiteSpace=wrap;html=1;fillColor=none;" vertex="1" parent="99">
                    <mxGeometry width="445" height="240" as="geometry"/>
                </mxCell>
                <mxCell id="101" value="INFORMACION" style="text;html=1;strokeColor=none;fillColor=none;align=center;verticalAlign=middle;whiteSpace=wrap;rounded=0;" vertex="1" parent="99">
                    <mxGeometry x="161.81818181818184" y="75" width="121.36363636363637" height="90" as="geometry"/>
                </mxCell>
                <mxCell id="102" value="" style="shape=flexArrow;endArrow=classic;html=1;" edge="1" parent="1">
                    <mxGeometry width="50" height="50" relative="1" as="geometry">
                        <mxPoint x="830" y="490" as="sourcePoint"/>
                        <mxPoint x="960" y="490" as="targetPoint"/>
                    </mxGeometry>
                </mxCell>
                <mxCell id="103" value="" style="group" vertex="1" connectable="0" parent="1">
                    <mxGeometry x="50" y="470" width="740" height="170" as="geometry"/>
                </mxCell>
                <mxCell id="28" value="" style="shape=table;startSize=0;container=1;collapsible=0;childLayout=tableLayout;rounded=0;strokeColor=default;strokeWidth=1;fillColor=none;" vertex="1" parent="103">
                    <mxGeometry width="740" height="170" as="geometry"/>
                </mxCell>
                <mxCell id="29" value="" style="shape=tableRow;horizontal=0;startSize=0;swimlaneHead=0;swimlaneBody=0;top=0;left=0;bottom=0;right=0;collapsible=0;dropTarget=0;fillColor=none;points=[[0,0.5],[1,0.5]];portConstraint=eastwest;rounded=0;strokeColor=default;strokeWidth=2;" vertex="1" parent="28">
                    <mxGeometry width="740" height="170" as="geometry"/>
                </mxCell>
                <mxCell id="30" value="" style="shape=partialRectangle;html=1;whiteSpace=wrap;connectable=0;overflow=hidden;fillColor=none;top=0;left=0;bottom=0;right=0;pointerEvents=1;rounded=0;strokeColor=default;strokeWidth=2;" vertex="1" parent="29">
                    <mxGeometry width="740" height="170" as="geometry">
                        <mxRectangle width="740" height="170" as="alternateBounds"/>
                    </mxGeometry>
                </mxCell>
                <mxCell id="32" value="" style="group" vertex="1" connectable="0" parent="103">
                    <mxGeometry x="50" y="30" width="650" height="110" as="geometry"/>
                </mxCell>
                <mxCell id="33" value="" style="rounded=0;whiteSpace=wrap;html=1;fillColor=none;" vertex="1" parent="32">
                    <mxGeometry width="650" height="110.00000000000001" as="geometry"/>
                </mxCell>
                <mxCell id="34" value="IMAGEN&lt;br&gt;PERSONAJE" style="text;html=1;strokeColor=none;fillColor=none;align=center;verticalAlign=middle;whiteSpace=wrap;rounded=0;" vertex="1" parent="32">
                    <mxGeometry x="236.36363636363637" y="34.375" width="177.27272727272728" height="41.25" as="geometry"/>
                </mxCell>
                <mxCell id="104" value="" style="group" vertex="1" connectable="0" parent="1">
                    <mxGeometry x="50" y="650" width="740" height="170" as="geometry"/>
                </mxCell>
                <mxCell id="105" value="" style="shape=table;startSize=0;container=1;collapsible=0;childLayout=tableLayout;rounded=0;strokeColor=default;strokeWidth=1;fillColor=none;" vertex="1" parent="104">
                    <mxGeometry width="740" height="170" as="geometry"/>
                </mxCell>
                <mxCell id="106" value="" style="shape=tableRow;horizontal=0;startSize=0;swimlaneHead=0;swimlaneBody=0;top=0;left=0;bottom=0;right=0;collapsible=0;dropTarget=0;fillColor=none;points=[[0,0.5],[1,0.5]];portConstraint=eastwest;rounded=0;strokeColor=default;strokeWidth=2;" vertex="1" parent="105">
                    <mxGeometry width="740" height="170" as="geometry"/>
                </mxCell>
                <mxCell id="107" value="" style="shape=partialRectangle;html=1;whiteSpace=wrap;connectable=0;overflow=hidden;fillColor=none;top=0;left=0;bottom=0;right=0;pointerEvents=1;rounded=0;strokeColor=default;strokeWidth=2;" vertex="1" parent="106">
                    <mxGeometry width="740" height="170" as="geometry">
                        <mxRectangle width="740" height="170" as="alternateBounds"/>
                    </mxGeometry>
                </mxCell>
                <mxCell id="108" value="" style="group" vertex="1" connectable="0" parent="104">
                    <mxGeometry x="50" y="30" width="650" height="110" as="geometry"/>
                </mxCell>
                <mxCell id="109" value="" style="rounded=0;whiteSpace=wrap;html=1;fillColor=none;" vertex="1" parent="108">
                    <mxGeometry width="650" height="110.00000000000001" as="geometry"/>
                </mxCell>
                <mxCell id="110" value="IMAGEN&lt;br&gt;PERSONAJE" style="text;html=1;strokeColor=none;fillColor=none;align=center;verticalAlign=middle;whiteSpace=wrap;rounded=0;" vertex="1" parent="108">
                    <mxGeometry x="236.36363636363637" y="34.375" width="177.27272727272728" height="41.25" as="geometry"/>
                </mxCell>
                <mxCell id="111" value="" style="group" vertex="1" connectable="0" parent="1">
                    <mxGeometry x="50" y="830" width="740" height="170" as="geometry"/>
                </mxCell>
                <mxCell id="112" value="" style="shape=table;startSize=0;container=1;collapsible=0;childLayout=tableLayout;rounded=0;strokeColor=default;strokeWidth=1;fillColor=none;" vertex="1" parent="111">
                    <mxGeometry width="740" height="170" as="geometry"/>
                </mxCell>
                <mxCell id="113" value="" style="shape=tableRow;horizontal=0;startSize=0;swimlaneHead=0;swimlaneBody=0;top=0;left=0;bottom=0;right=0;collapsible=0;dropTarget=0;fillColor=none;points=[[0,0.5],[1,0.5]];portConstraint=eastwest;rounded=0;strokeColor=default;strokeWidth=2;" vertex="1" parent="112">
                    <mxGeometry width="740" height="170" as="geometry"/>
                </mxCell>
                <mxCell id="114" value="" style="shape=partialRectangle;html=1;whiteSpace=wrap;connectable=0;overflow=hidden;fillColor=none;top=0;left=0;bottom=0;right=0;pointerEvents=1;rounded=0;strokeColor=default;strokeWidth=2;" vertex="1" parent="113">
                    <mxGeometry width="740" height="170" as="geometry">
                        <mxRectangle width="740" height="170" as="alternateBounds"/>
                    </mxGeometry>
                </mxCell>
                <mxCell id="115" value="" style="group" vertex="1" connectable="0" parent="111">
                    <mxGeometry x="50" y="30" width="650" height="110" as="geometry"/>
                </mxCell>
                <mxCell id="116" value="" style="rounded=0;whiteSpace=wrap;html=1;fillColor=none;" vertex="1" parent="115">
                    <mxGeometry width="650" height="110.00000000000001" as="geometry"/>
                </mxCell>
                <mxCell id="117" value="IMAGEN&lt;br&gt;PERSONAJE" style="text;html=1;strokeColor=none;fillColor=none;align=center;verticalAlign=middle;whiteSpace=wrap;rounded=0;" vertex="1" parent="115">
                    <mxGeometry x="236.36363636363637" y="34.375" width="177.27272727272728" height="41.25" as="geometry"/>
                </mxCell>
                <mxCell id="121" value="" style="group" vertex="1" connectable="0" parent="1">
                    <mxGeometry x="1000" y="820" width="740" height="170" as="geometry"/>
                </mxCell>
                <mxCell id="122" value="" style="shape=table;startSize=0;container=1;collapsible=0;childLayout=tableLayout;rounded=0;strokeColor=default;strokeWidth=1;fillColor=none;" vertex="1" parent="121">
                    <mxGeometry width="740" height="170" as="geometry"/>
                </mxCell>
                <mxCell id="123" value="" style="shape=tableRow;horizontal=0;startSize=0;swimlaneHead=0;swimlaneBody=0;top=0;left=0;bottom=0;right=0;collapsible=0;dropTarget=0;fillColor=none;points=[[0,0.5],[1,0.5]];portConstraint=eastwest;rounded=0;strokeColor=default;strokeWidth=2;" vertex="1" parent="122">
                    <mxGeometry width="740" height="170" as="geometry"/>
                </mxCell>
                <mxCell id="124" value="" style="shape=partialRectangle;html=1;whiteSpace=wrap;connectable=0;overflow=hidden;fillColor=none;top=0;left=0;bottom=0;right=0;pointerEvents=1;rounded=0;strokeColor=default;strokeWidth=2;" vertex="1" parent="123">
                    <mxGeometry width="740" height="170" as="geometry">
                        <mxRectangle width="740" height="170" as="alternateBounds"/>
                    </mxGeometry>
                </mxCell>
                <mxCell id="125" value="" style="group" vertex="1" connectable="0" parent="121">
                    <mxGeometry x="50" y="30" width="650" height="110" as="geometry"/>
                </mxCell>
                <mxCell id="126" value="" style="rounded=0;whiteSpace=wrap;html=1;fillColor=none;" vertex="1" parent="125">
                    <mxGeometry width="650" height="110.00000000000001" as="geometry"/>
                </mxCell>
                <mxCell id="127" value="IMAGEN&lt;br&gt;PERSONAJE" style="text;html=1;strokeColor=none;fillColor=none;align=center;verticalAlign=middle;whiteSpace=wrap;rounded=0;" vertex="1" parent="125">
                    <mxGeometry x="236.36363636363637" y="34.375" width="177.27272727272728" height="41.25" as="geometry"/>
                </mxCell>
            </root>
        </mxGraphModel>
    </diagram>
</mxfile>